<svg width="71" height="28" viewBox="0 0 71 28" fill="none" xmlns="http://www.w3.org/2000/svg">
<path d="M49.9682 25.2981C47.9198 24.1924 46.2246 22.5317 45.0771 20.5064C43.9106 18.4647 43.3279 16.1401 43.3289 13.5326C43.3289 10.903 43.9116 8.55997 45.0771 6.5036C46.2178 4.47311 47.9147 2.81067 49.9682 1.71189C52.0603 0.570626 54.4596 0 57.166 0C59.8724 0 62.2749 0.570626 64.3733 1.71189C66.423 2.80718 68.1193 4.4624 69.2644 6.48466C70.4215 8.52841 71 10.8777 71 13.5326C71 16.1412 70.4173 18.4658 69.2518 20.5064C68.1019 22.5347 66.4012 24.196 64.3465 25.2981C62.2428 26.4551 59.8493 27.0336 57.166 27.0336C54.4596 27.0294 52.0603 26.4509 49.9682 25.2981ZM62.5336 19.4177C63.9326 17.9283 64.6326 15.9682 64.6337 13.5373C64.66 12.0458 64.3312 10.5694 63.6744 9.23C63.0752 8.01466 62.1505 6.98945 61.0032 6.26851C59.8366 5.54665 58.4873 5.17481 57.1155 5.19719C55.7627 5.17944 54.4331 5.5499 53.2844 6.26466C52.1356 6.97941 51.2158 8.00851 50.634 9.23C49.9929 10.5739 49.6732 12.0486 49.7 13.5373C49.7 15.9682 50.3916 17.9283 51.7748 19.4177C53.158 20.9071 54.955 21.6513 57.166 21.6503C59.3413 21.6503 61.1305 20.9061 62.5336 19.4177Z" fill="#FAF6ED"/>
<path d="M49.675 6.78442L57.1155 13.2275L49.0689 20.1955L49.675 6.78442Z" fill="#FAF6ED"/>
<path d="M40.8645 14.0296L30.1356 14.3925L35.1529 20.7431C35.1529 20.7431 32.3713 20.7431 32.3476 20.7431L25.945 24.1873L28.3274 16.8964L21.6424 13.6036L28.3905 11.237C28.4158 11.1581 26.6329 3.62892 26.6329 3.62892L32.9756 7.76585C33.2911 7.68696 37.1567 1.7482 37.1567 1.7482L38.7991 8.33858L41.281 2.51185C40.1136 1.88623 38.8684 1.41828 37.5779 1.12025C36.1924 0.792447 34.7733 0.628292 33.3495 0.63114C30.6925 0.63114 28.3259 1.22017 26.2495 2.39824C24.2179 3.52759 22.5345 5.19189 21.3821 7.21047C20.2147 9.24579 19.6112 11.5556 19.6339 13.9018C19.6097 16.3297 20.2072 18.7233 21.3694 20.8551C22.4802 22.9173 24.1304 24.639 26.1438 25.8361C28.1728 27.0531 30.4532 27.6606 32.985 27.6585C34.0985 27.6588 35.21 27.5654 36.3078 27.3792V27.3792C38.1558 27.0597 39.9533 26.4968 41.6533 25.7052V13.9381L40.8645 14.0296Z" fill="#FAF6ED"/>
<path d="M0 0.508057H12.4644L18.2912 8.01197L14.2473 6.51624C12.3272 5.80624 10.2382 7.1079 10.2382 9.01385C10.2382 10.9498 12.3903 12.253 14.3183 11.4831L17.649 10.1562V16.4767L9.62444 16.7592C9.62444 21.6503 12.6759 21.6503 14.7491 20.7036L18.6935 18.8876V26.3836H0V0.508057Z" fill="#FAF6ED"/>
<rect x="59.2271" y="8.39648" width="1.639" height="9.13158" rx="0.819501" fill="#FAF7EF"/>
</svg>
