<svg xmlns="http://www.w3.org/2000/svg" viewBox="0 0 203.77 328.55"><defs><style>.cls-1{fill:#faf7ef;}.cls-2{fill:#242424;}.cls-3{fill:#dc3b6b;}.cls-4{fill:#0092d0;}</style></defs><g id="Camada_2" data-name="Camada 2"><g id="Arte"><path class="cls-1" d="M109.94,115.5c0,42-22.87,76.09-51.07,76.09a35.55,35.55,0,0,1-14.27-3C23.34,179.38,7.8,150.14,7.8,115.5c0-33.28,14.34-61.57,34.32-71.9a36.3,36.3,0,0,1,16.75-4.19C87.07,39.41,109.94,73.48,109.94,115.5Z"/><path class="cls-2" d="M58.87,42.17c26.64,0,48.31,32.9,48.31,73.33s-21.67,73.34-48.31,73.34A32.76,32.76,0,0,1,45.69,186C25,177.09,10.56,148.09,10.56,115.5c0-31.39,13.19-59.3,32.83-69.45a33.47,33.47,0,0,1,15.48-3.88m0-2.76A36.3,36.3,0,0,0,42.12,43.6C22.14,53.93,7.8,82.22,7.8,115.5c0,34.64,15.54,63.88,36.8,73.07a35.55,35.55,0,0,0,14.27,3c28.2,0,51.07-34.06,51.07-76.09S87.07,39.41,58.87,39.41Z"/><path class="cls-2" d="M81.53,116.54c0,34.44-15.65,63.43-36.93,72C23.34,179.38,7.8,150.14,7.8,115.5c0-33.28,14.34-61.57,34.32-71.9C64.66,50.89,81.53,80.78,81.53,116.54Z"/><path class="cls-1" d="M84.72,86.14c-.83,1.66-40,30-40,30L87.2,154Z"/><path class="cls-1" d="M16.68,105.41a11.56,11.56,0,0,0,.55,4.76,4.46,4.46,0,0,0,3.54,2.92c3.06.23,4.73-3.41,5.52-6.37l7.14-26.87c1.14-4.27,3.5-9.52,3.7-13.91.18-3.9-.71-4.4-3.87-1.82C22.37,73,17.19,92.07,16.68,105.41Z"/><path class="cls-2" d="M0,46.72C.62,22.91,22.31,2.74,45.47.33c7.75-.87,15.7-.07,22.68,3.13a1.36,1.36,0,0,1,.67,1.8,1.33,1.33,0,0,1-1,.77,130.54,130.54,0,0,0-19.93,5.15A83.65,83.65,0,0,0,15.61,31.67,130.93,130.93,0,0,0,2.47,47.52,1.37,1.37,0,0,1,0,46.72Z"/><path class="cls-2" d="M141.48,2.52c22.8-4.6,48,9,58.26,29.56a38.93,38.93,0,0,1,4,15.54,1.39,1.39,0,0,1-1.33,1.44,1.43,1.43,0,0,1-1.07-.44c-2.48-2.35-4.71-4.73-7-7.12A206.5,206.5,0,0,0,174,23.13,127.72,127.72,0,0,0,150.33,9c-3-1.32-6.06-2.58-9.15-4a1.36,1.36,0,0,1,.3-2.55Z"/><path class="cls-3" d="M99.39,133.12a40.2,40.2,0,0,1-9,24.47C85.18,163.9,77.84,169,75.71,176.91a16.75,16.75,0,0,0,25.5,18.28"/><path class="cls-2" d="M91.9,199.34A18.14,18.14,0,0,1,81.32,196a18.44,18.44,0,0,1-6.94-19.46c1.59-5.9,5.87-10.28,10-14.52,1.68-1.72,3.41-3.49,4.91-5.32A38.59,38.59,0,0,0,98,133.09l2.76,0a41.37,41.37,0,0,1-9.34,25.32c-1.57,1.92-3.35,3.74-5.06,5.5-4.08,4.17-7.93,8.11-9.33,13.31A15.37,15.37,0,0,0,100.45,194l1.53,2.29A18.1,18.1,0,0,1,91.9,199.34Z"/><path class="cls-1" d="M192.65,116.33c0,42-22.87,76.09-51.07,76.09a35.6,35.6,0,0,1-14.28-3c-21.25-9.2-36.79-38.43-36.79-73.07,0-33.28,14.34-61.57,34.32-71.9a36.12,36.12,0,0,1,16.75-4.19C169.78,40.24,192.65,74.31,192.65,116.33Z"/><path class="cls-2" d="M141.58,43c26.64,0,48.31,32.9,48.31,73.33s-21.67,73.33-48.31,73.33a32.92,32.92,0,0,1-13.18-2.79c-20.69-9-35.14-38-35.14-70.54,0-31.39,13.2-59.3,32.84-69.45A33.35,33.35,0,0,1,141.58,43m0-2.76a36.12,36.12,0,0,0-16.75,4.19c-20,10.33-34.32,38.62-34.32,71.9,0,34.64,15.54,63.87,36.79,73.07a35.6,35.6,0,0,0,14.28,3c28.2,0,51.07-34.07,51.07-76.09s-22.87-76.09-51.07-76.09Z"/><path class="cls-2" d="M164.24,117.36c0,34.44-15.66,63.43-36.94,72-21.25-9.2-36.79-38.43-36.79-73.07,0-33.28,14.34-61.57,34.32-71.9C147.37,51.72,164.24,81.61,164.24,117.36Z"/><path class="cls-1" d="M104.34,103.75a11.8,11.8,0,0,0,.56,4.77,4.46,4.46,0,0,0,3.54,2.92c3.06.22,4.73-3.41,5.52-6.37l7.14-26.88c1.14-4.27,3.5-9.52,3.7-13.91.17-3.89-.72-4.4-3.87-1.81C110,71.37,104.86,90.42,104.34,103.75Z"/><path class="cls-1" d="M168.25,78.7c-.83,1.65-40.05,29.94-40.05,29.94l42.53,37.88Z"/><path class="cls-2" d="M146.41,259.51C140.32,279.05,109,308.1,76,309c-30.49.82-50.89-41.85-53.17-45.49S11.76,239,28.45,223.61c4.85-4.47,13.66-7.58,24.38-9.6,17.07-3.22,39.31-3.73,57.8-2.34,12.55,1,23.21,2.76,28.94,5.15C160.4,225.5,151.78,242.26,146.41,259.51Z"/><path class="cls-4" d="M80.7,258.82c-.77.27-26.18-13.89-38.74.2-16.26,18.23,6.58,66.6,36.67,69.37,32.52,3,53.21-37.85,51.25-52.66C124.76,236.84,80.7,258.82,80.7,258.82Z"/><path class="cls-2" d="M105.52,254.82c12.87,0,20.34,7.13,22.19,21.2,1,7.35-4.44,22.66-14.87,34.56-6.31,7.19-16.78,15.77-30.83,15.77-1.05,0-2.12-.05-3.18-.14-7.42-.69-14.9-4.45-21.64-10.87a63.6,63.6,0,0,1-14.74-22.21c-5.28-13.42-4.84-25.93,1.15-32.65,3.26-3.67,7.91-5.52,13.81-5.52,8.34,0,16.92,3.63,20.58,5.19a7.26,7.26,0,0,0,2.68.87h.4l.35-.13.13,0,.13-.07c.12-.06,12.08-6,23.84-6m0-2.19c-12.42,0-24.82,6.19-24.82,6.19h0c-.8,0-12.11-6.06-23.26-6.06-5.65,0-11.27,1.56-15.45,6.26-16.26,18.23,6.58,66.6,36.67,69.37,1.14.11,2.27.16,3.38.16,30.57,0,49.76-38.53,47.87-52.82-2.4-18.26-13.38-23.1-24.36-23.1Z"/><path class="cls-1" d="M110.63,211.67a273.17,273.17,0,0,0-29.93-.54v34C106.16,244,110.08,220.08,110.63,211.67Z"/><path class="cls-2" d="M90.73,212.41c6.23,0,12.39.21,18.33.62a43.3,43.3,0,0,1-5.31,17.35c-4.69,7.93-11.94,12.36-21.59,13.19v-31c2.82-.09,5.7-.13,8.57-.13m0-1.47c-3.34,0-6.7.07-10,.19v34c25.46-1.17,29.38-25.06,29.93-33.47-6.3-.47-13.06-.73-19.9-.73Z"/><path class="cls-1" d="M52.83,214c.06,7.52,2.14,31.91,27.22,31.17l.65,0v-34A192.51,192.51,0,0,0,52.83,214Z"/><path class="cls-2" d="M79.24,212.65v31.08h-.31c-9.68,0-16.65-4-20.73-12a40.36,40.36,0,0,1-3.88-16.49,189.28,189.28,0,0,1,24.92-2.57m1.46-1.52A192.51,192.51,0,0,0,52.83,214c.06,7.41,2.08,31.18,26.1,31.18h1.12l.65,0v-34Z"/><path class="cls-4" d="M77.77,301.18a48.57,48.57,0,0,1,3-42.63"/><path class="cls-2" d="M77.77,302.28a1.1,1.1,0,0,1-1-.68A49.83,49.83,0,0,1,79.86,258a1.1,1.1,0,1,1,1.9,1.1,47.61,47.61,0,0,0-3,41.67,1.1,1.1,0,0,1-.6,1.43A1,1,0,0,1,77.77,302.28Z"/></g></g></svg>