<svg xmlns="http://www.w3.org/2000/svg" viewBox="0 0 237.03 302.19"><defs><style>.cls-1{fill:#faf7ef;}.cls-2{fill:#242424;}.cls-3{fill:#f27224;}</style></defs><g id="Camada_2" data-name="Camada 2"><g id="Arte"><path class="cls-1" d="M105.23,116.25c0,36.93-14.21,68.39-34.12,80.31a34.14,34.14,0,0,1-17.71,5.12c-28.63,0-51.84-38.24-51.84-85.43S24.77,30.81,53.4,30.81a34.15,34.15,0,0,1,17.71,5.13C91,47.86,105.23,79.31,105.23,116.25Z"/><path class="cls-2" d="M53.4,33.94a31,31,0,0,1,16.1,4.68c19.5,11.67,32.6,42.87,32.6,77.63S89,182.2,69.5,193.88a31.06,31.06,0,0,1-16.1,4.68c-12.72,0-24.78-8.35-34-23.52-9.5-15.65-14.73-36.53-14.73-58.79S9.92,73.11,19.42,57.46c9.2-15.17,21.26-23.52,34-23.52m0-3.13c-28.63,0-51.84,38.25-51.84,85.44s23.21,85.43,51.84,85.43a34.14,34.14,0,0,0,17.71-5.12c19.91-11.92,34.12-43.38,34.12-80.31S91,47.86,71.11,35.94A34.15,34.15,0,0,0,53.4,30.81Z"/><path class="cls-1" d="M220.88,116.25c0,38.18-15.19,70.51-36.16,81.45a33.55,33.55,0,0,1-15.67,4c-28.63,0-51.84-38.24-51.84-85.43s23.21-85.44,51.84-85.44a33,33,0,0,1,13.5,2.94C204.63,43.53,220.88,76.76,220.88,116.25Z"/><path class="cls-2" d="M169.05,33.94a30,30,0,0,1,12.23,2.67c21.48,9.51,36.47,42.26,36.47,79.64,0,18.08-3.43,35.25-9.94,49.66-6.17,13.68-14.89,24-24.54,29a30.48,30.48,0,0,1-14.22,3.63c-12.72,0-24.78-8.35-34-23.52-9.49-15.65-14.72-36.53-14.72-58.79s5.23-43.14,14.72-58.79c9.21-15.17,21.27-23.52,34-23.52m0-3.13c-28.63,0-51.84,38.25-51.84,85.44s23.21,85.43,51.84,85.43a33.55,33.55,0,0,0,15.67-4c21-10.94,36.16-43.27,36.16-81.45,0-39.49-16.25-72.72-38.33-82.5a33,33,0,0,0-13.5-2.94Z"/><ellipse class="cls-2" cx="71.11" cy="116.25" rx="34.12" ry="80.31"/><path class="cls-2" d="M220.88,116.25c0,38.18-15.19,70.51-36.16,81.45-22.08-9.78-38.33-43-38.33-82.49,0-38.19,15.19-70.52,36.16-81.46C204.63,43.53,220.88,76.76,220.88,116.25Z"/><path class="cls-2" d="M96.83,32.38a1.56,1.56,0,0,1-1.3-.7C95.34,31.4,76.91,4.2,47.87,3.2c-29.31-1-45.33,8.61-45.49,8.71A1.56,1.56,0,0,1,.74,9.25C1.42,8.83,17.64-1,48,.08,68.79.8,84.1,13.76,92,22.38c-2.47-6.75-5-14.11-5-15.53a1.56,1.56,0,0,1,3.12,0c.15,1.66,4.86,14.69,8.17,23.44a1.56,1.56,0,0,1-.75,1.94A1.5,1.5,0,0,1,96.83,32.38ZM90.12,6.85h0Z"/><path class="cls-2" d="M122.36,32.38A1.57,1.57,0,0,1,121,30.13L135.07.88a1.57,1.57,0,0,1,2.82,1.36l-10.62,22c2.13-1.79,4.75-3.88,7.76-6,7.64-5.45,19.3-12.29,31.46-13.95C190.13,1,213.61,21.32,216.34,24.49a1.57,1.57,0,1,1-2.38,2c-2.45-2.85-25.11-22.16-47.05-19.17-22.11,3-43.22,24.33-43.44,24.55A1.54,1.54,0,0,1,122.36,32.38Z"/><path class="cls-3" d="M116.25,170.35c-10.73-3.41-22.74-6.8-33.2-2.8a26.54,26.54,0,0,0-12.39,10C62.23,190.13,66,208,79,217s33.46,7.89,45.14-2.39"/><path class="cls-2" d="M99.86,224.65a38.42,38.42,0,0,1-21.76-6.41c-13.8-9.54-17.72-28.16-8.74-41.51a28.35,28.35,0,0,1,13.13-10.64c10.68-4.08,22.77-.87,34.24,2.77a1.56,1.56,0,0,1-1,3c-11.39-3.62-22.42-6.56-32.17-2.83A25.14,25.14,0,0,0,72,178.47c-7.9,11.74-4.28,28.77,7.91,37.2s32.13,7.49,43.23-2.27a1.56,1.56,0,0,1,2.06,2.35C118.47,221.64,109.15,224.65,99.86,224.65Z"/><circle class="cls-2" cx="197.7" cy="245.18" r="9.12"/><circle class="cls-2" cx="227.91" cy="260.81" r="9.12"/><circle class="cls-2" cx="193.53" cy="279.56" r="9.12"/><path class="cls-2" d="M98.54,269.41a54.89,54.89,0,0,0,40.88-16.18,42.39,42.39,0,0,1-18,42.4,42.41,42.41,0,0,1-46-.48c-8-5.49-24.26-26.44-17.48-37.3,4.63-7.43,11.14,1.69,16.49,4.67A54.26,54.26,0,0,0,98.54,269.41Z"/><path class="cls-1" d="M94.25,104.06c-2.88-8-9.19-23.19-14.49-28.27S68.14,68.3,71,63.38c2.4-4.12,9-.22,13.86,6.29C91.12,78,94.11,100.44,94.25,104.06Z"/><path class="cls-1" d="M205.73,96.76c-2.87-8-9.18-23.18-14.49-28.26S179.62,61,182.49,56.09c2.4-4.13,9-.22,13.86,6.29C202.61,70.72,205.59,93.15,205.73,96.76Z"/></g></g></svg>