<svg xmlns="http://www.w3.org/2000/svg" viewBox="0 0 237.47 331.65"><defs><style>.cls-1{fill:#faf7ef;}.cls-2{fill:#242424;}.cls-3{fill:#ffcc1f;}</style></defs><g id="Camada_2" data-name="Camada 2"><g id="Arte"><path class="cls-1" d="M132,130.75a156.59,156.59,0,0,1-5,40c-8.84,33.33-28.39,56.5-51.09,56.5-31,0-56.13-43.19-56.13-96.47S44.89,34.28,75.89,34.28c8.38,0,16.33,3.16,23.47,8.82C118.64,58.38,132,91.87,132,130.75Z"/><path class="cls-2" d="M75.89,37.69c7.4,0,14.59,2.72,21.36,8.08,19,15.1,31.35,48.45,31.35,85a152.16,152.16,0,0,1-4.92,39.1c-8.69,32.78-27.45,54-47.79,54-13.73,0-26.78-9.43-36.74-26.56-10.3-17.71-16-41.32-16-66.5s5.68-48.8,16-66.5c10-17.13,23-26.56,36.74-26.56m0-3.41c-31,0-56.13,43.18-56.13,96.47s25.13,96.47,56.13,96.47c22.7,0,42.25-23.17,51.09-56.5a156.59,156.59,0,0,0,5-40c0-38.88-13.37-72.37-32.65-87.65-7.14-5.66-15.1-8.82-23.47-8.82Z"/><path class="cls-2" d="M0,55.58c-.46-7,2.85-13.54,7-18.74,10.2-12,25.84-19.06,41.45-16.63a29.44,29.44,0,0,1,8.79,2.73c.06.07.17.1.06.24a1,1,0,0,0-.13.11l-.11.09A1.91,1.91,0,0,0,57,26.16a1.38,1.38,0,0,0,.79.43c.35,0,.26,0,.3-.06a1.71,1.71,0,0,1,.1-3.41.83.83,0,0,1,.56,0,1.87,1.87,0,0,1,1,3c-.24.35-.89.72-1.08,1A52.56,52.56,0,0,1,52.4,33.9c-9.78,9.06-21.92,13.38-34,17.71C13.48,53.28,8,55.18,3,57.29a2.09,2.09,0,0,1-3-1.71Z"/><ellipse class="cls-2" cx="86.75" cy="131.06" rx="32.91" ry="75.19"/><path class="cls-1" d="M94.68,85.93c1.25,3.52,2,7.2,3.21,10.72.41,1.18,1,2.48,2.21,2.84A2.79,2.79,0,0,0,103,98.32,6.7,6.7,0,0,0,104,95.2,26.57,26.57,0,0,0,97.61,74a9.81,9.81,0,0,0-4-3c-3.6-1.2-6.31,1.71-5,5.18S93.35,82.19,94.68,85.93Z"/><path class="cls-1" d="M101.06,124.71c.09,1.44.74,3.36,2.18,3.18.91-.11,1.45-1.06,1.79-1.91,1.27-3.12,5.4-17.88,0-19.3C98.79,105,100.88,122,101.06,124.71Z"/><polygon class="cls-1" points="53.83 87.78 89.48 141.83 51.26 199.79 53.83 87.78"/><path class="cls-1" d="M233.36,129.4a154.72,154.72,0,0,1-5.08,40c-8.92,33.32-28.65,56.48-51.56,56.48-31.28,0-56.64-43.18-56.64-96.44S145.44,33,176.72,33c8.45,0,16.49,3.16,23.69,8.82C219.86,57.05,233.36,90.54,233.36,129.4Z"/><path class="cls-2" d="M176.72,36.39c7.49,0,14.75,2.72,21.58,8.09,19.22,15.09,31.64,48.42,31.64,84.92a150.57,150.57,0,0,1-5,39.07c-8.77,32.77-27.71,53.94-48.25,53.94-13.87,0-27-9.43-37.1-26.55-10.39-17.7-16.12-41.3-16.12-66.46s5.73-48.76,16.12-66.46c10.06-17.12,23.23-26.55,37.1-26.55m0-3.43c-31.28,0-56.64,43.18-56.64,96.44s25.36,96.44,56.64,96.44c22.91,0,42.64-23.16,51.56-56.48a154.72,154.72,0,0,0,5.08-40c0-38.86-13.5-72.35-33-87.62-7.2-5.66-15.24-8.82-23.69-8.82Z"/><path class="cls-2" d="M175.17,8.16c16.4-13,44.42-10.26,57.12,6.89A27.25,27.25,0,0,1,237,25.52a19.72,19.72,0,0,1-.76,11.34,2.2,2.2,0,0,1-3.29,1c-7.06-4.62-13.39-7.32-20.67-10.42-6.63-3-12.94-5.52-20.15-8.4a155.43,155.43,0,0,1-16.59-7.46,2.07,2.07,0,0,1-.36-3.4Z"/><ellipse class="cls-2" cx="187.68" cy="129.71" rx="33.22" ry="75.16"/><path class="cls-1" d="M195.68,84.6c1.26,3.51,2,7.19,3.24,10.72.41,1.17,1,2.47,2.23,2.83A2.82,2.82,0,0,0,204.07,97a6.69,6.69,0,0,0,1.07-3.12,26.45,26.45,0,0,0-6.49-21.15,10,10,0,0,0-4.06-3c-3.62-1.2-6.36,1.72-5,5.18S194.35,80.86,195.68,84.6Z"/><path class="cls-1" d="M202.12,123.36c.09,1.45.75,3.36,2.2,3.19.93-.11,1.46-1.07,1.81-1.92,1.28-3.12,5.45-17.87,0-19.29C199.84,103.7,201.94,120.6,202.12,123.36Z"/><polygon class="cls-1" points="154.46 86.45 190.43 140.48 151.86 198.42 154.46 86.45"/><circle class="cls-2" cx="40.56" cy="250.05" r="5.94"/><circle class="cls-2" cx="64.32" cy="240.67" r="5.94"/><circle class="cls-2" cx="80.58" cy="260.68" r="5.94"/><circle class="cls-2" cx="24.92" cy="219.4" r="5.94"/><circle class="cls-2" cx="215.67" cy="233.79" r="5.94"/><circle class="cls-2" cx="191.9" cy="233.16" r="5.94"/><circle class="cls-2" cx="218.79" cy="205.02" r="5.94"/><path class="cls-3" d="M125.15,159.46c8.39,31,47.76,88.41,47.76,88.41s-38.57-1.32-52.92-1.29"/><path class="cls-2" d="M175.94,249.53l-3.09-.1c-.38,0-38.69-1.31-52.86-1.29V245c11.85,0,40.5.88,49.92,1.19-7.77-11.57-38.8-58.81-46.25-86.35l3-.81c8.23,30.37,47.15,87.37,47.54,87.94Z"/><path class="cls-2" d="M122.12,330.77C96.1,327,75,309,65.11,284.64c13.16,11.81,89.25,4.26,105.62-.55,1.92,15.4,14,18.81,29.81,28C180.54,326.9,146.49,334.34,122.12,330.77Z"/><path class="cls-2" d="M103.74,292.69c-17.36,0-30.55-2-39.34-6.09a2.23,2.23,0,1,1,1.87-4.06c24.85,11.45,84.19,2.72,105-1.6,25.45-5.3,41.12-23.13,44.61-29a2.24,2.24,0,1,1,3.84,2.3c-4,6.71-20.39,25.38-47.54,31a390.79,390.79,0,0,1-52.79,6.88Q111.06,292.69,103.74,292.69Z"/></g></g></svg>