<svg xmlns="http://www.w3.org/2000/svg" viewBox="0 0 341.74 290.54"><defs><style>.cls-1{fill:#faf7ef;}.cls-2{fill:#242424;}.cls-3{fill:#0092d0;}.cls-4{fill:#42b254;}.cls-5{fill:#dc3b6b;}</style></defs><g id="Camada_2" data-name="Camada 2"><g id="Arte"><path class="cls-1" d="M337.19,103.43a75.18,75.18,0,0,1-55.11,54c-37.5,9-72-9.48-87.46-39.43A76.88,76.88,0,1,1,128.23,2.32c26.25,0,46.43,14.44,60.6,33.47,2.7,3.62,10.4,4.78,13.34,1.34C215.64,21.38,238.68,5.94,263,5.94,312.15,5.94,350.54,52.09,337.19,103.43Z"/><path class="cls-2" d="M128.23,5.68c28.1,0,47,17.46,57.9,32.11,2.16,2.89,6.33,4.76,10.64,4.76a10.2,10.2,0,0,0,7.95-3.23c11.84-13.85,34.2-30,58.27-30a73.08,73.08,0,0,1,58.2,28.59c14.06,18.19,18.71,41.77,12.75,64.69a71.56,71.56,0,0,1-52.64,51.55,78,78,0,0,1-18.3,2.21,73.28,73.28,0,0,1-65.4-39.9L194.8,111l-3.08,5.28a73.51,73.51,0,0,1-63.27,36.44h-.21A73.83,73.83,0,0,1,54.73,80.94a74.77,74.77,0,0,1,1.1-14.61,73.56,73.56,0,0,1,72.4-60.65m0-3.36a76.88,76.88,0,0,0,0,153.76h.22A76.87,76.87,0,0,0,194.62,118,76.85,76.85,0,0,0,263,159.7a81.32,81.32,0,0,0,19.08-2.3,75.18,75.18,0,0,0,55.11-54c13.35-51.34-25-97.49-74.2-97.49-24.31,0-47.36,15.44-60.82,31.19a7,7,0,0,1-5.4,2.06c-3.05,0-6.36-1.28-7.94-3.4-14.17-19-34.35-33.47-60.6-33.47Z"/><path class="cls-3" d="M51.38,77.84c0,1.06,0,2.11,0,3.18a76.75,76.75,0,0,0,27.69,57.12,36.92,36.92,0,0,0,9.37,1.2c23.23,0,42.06-21.66,42.06-48.38a55.29,55.29,0,0,0-1.55-13Z"/><path class="cls-2" d="M55,81.5l70.95.11a52.28,52.28,0,0,1,.85,9.35c0,24.66-17.23,44.73-38.41,44.73a33.48,33.48,0,0,1-7.66-.89A73.23,73.23,0,0,1,55,81.5m-3.66-3.66c0,1.06,0,2.11,0,3.18a76.75,76.75,0,0,0,27.69,57.12,36.92,36.92,0,0,0,9.37,1.2c23.23,0,42.06-21.66,42.06-48.38a55.29,55.29,0,0,0-1.55-13l-77.56-.12Z"/><path class="cls-2" d="M52.28,77.72c0,1.06,0,2.11,0,3.17A76.81,76.81,0,0,0,80,138a35.88,35.88,0,0,0,9.37,1.2c23.22,0,42-21.66,42-48.39a55.27,55.27,0,0,0-1.54-13Z"/><path class="cls-1" d="M140,74.72,86,86l50.69,16S140,72,140,74.72Z"/><path class="cls-2" d="M195.18,76.82c-3.19,4.64-5,32.68-.47,41.72S212.29,143,215.51,143c23.22,0,46.13-24.49,46.13-51.22a71.61,71.61,0,0,0-1.81-14.8Z"/><path class="cls-1" d="M277.73,70.62,221.18,87.16l52.72,19.73S277.73,67.49,277.73,70.62Z"/><path class="cls-4" d="M263,6.39a76.25,76.25,0,0,0-56.52,25Q205,33,203.61,34.7l-.09.11a9.43,9.43,0,0,1-15.05-.39c-1.38-1.92-2.83-3.78-4.36-5.56-14-16.29-34.26-26.54-56.79-26.54-36.63,0-67.23,27.07-74.67,63.2-.17.82-.32,1.64-.46,2.47a74.49,74.49,0,0,0-.81,9.85l287.9.45A76.42,76.42,0,0,0,263,6.39Z"/><path class="cls-2" d="M341.74,80.62,49,80.16l0-2.36a79.08,79.08,0,0,1,.84-10.15c.16-.91.31-1.76.48-2.6A83.64,83.64,0,0,1,77.53,18.61a76.16,76.16,0,0,1,108.34,8.73c1.57,1.83,3.08,3.76,4.49,5.73a7,7,0,0,0,5.55,3,7.17,7.17,0,0,0,5.81-2.69l.09-.11c1-1.24,2-2.36,2.95-3.44A78.75,78.75,0,0,1,341.6,78.16Zm-288-5.09,283,.44a74.1,74.1,0,0,0-128.59-43c-.92,1-1.83,2.05-2.77,3.22l-.09.11a11.76,11.76,0,0,1-18.75-.5c-1.33-1.86-2.75-3.68-4.24-5.4A71.49,71.49,0,0,0,80.55,22.14,78.94,78.94,0,0,0,54.92,66q-.24,1.2-.45,2.4C54.13,70.73,53.9,73.13,53.78,75.53Z"/><path class="cls-2" d="M195.61,76c-6.24-11-10.25-27.67-8.14-39.79a10.75,10.75,0,0,0,8.14,3.62c5.44-.26,11-5.12,8.14-1.81-5.43,6.33-9.44,26.57-6.33,38Z"/><ellipse class="cls-4" cx="183.4" cy="157.89" rx="62.41" ry="33.46"/><path class="cls-2" d="M183.4,193.67c-17.05,0-33.11-3.58-45.22-10.08-12.58-6.74-19.51-15.87-19.51-25.7s6.93-19,19.51-25.71c12.11-6.5,28.18-10.08,45.22-10.08s33.11,3.58,45.23,10.08c12.57,6.74,19.5,15.87,19.5,25.71s-6.93,19-19.5,25.7C216.51,190.09,200.45,193.67,183.4,193.67Zm0-66.93c-33.13,0-60.08,14-60.08,31.15S150.27,189,183.4,189s60.09-14,60.09-31.14S216.53,126.74,183.4,126.74Z"/><path class="cls-1" d="M61.8,100.54c1.35,2.52,3.91,5.06,6.66,4.28a4.83,4.83,0,0,0,3.12-3.46,11.13,11.13,0,0,0,0-4.84C71,92.94,68.32,79,62.15,80.83S59.82,96.84,61.8,100.54Z"/><path class="cls-1" d="M202.48,99.78c.88,2.72,3,5.67,5.8,5.4a4.82,4.82,0,0,0,3.68-2.86,11.28,11.28,0,0,0,.86-4.76c0-3.63-.09-17.84-6.48-17.11S201.19,95.79,202.48,99.78Z"/><line class="cls-3" x1="1.7" y1="69.36" x2="86" y2="79.83"/><polygon class="cls-2" points="3.4 55.68 86.02 79.63 85.97 80.03 0 83.03 3.4 55.68 3.4 55.68"/><path class="cls-2" d="M236.13,232s-23.2,38-57.74,52a66.72,66.72,0,0,1-23.91,5.14c-19.11.38-29.33-8.85-35.86-20.89-8.35-15.36-6.33-31.77-19.74-49.66C152.53,237.43,236.13,232,236.13,232Z"/><path class="cls-2" d="M153.31,290.54c-16.46,0-27.88-6.88-35.86-21.59-3.53-6.5-5.21-13-7-19.95-2.44-9.48-5-19.28-12.66-29.55a1.33,1.33,0,0,1,1.51-2c52.77,18.47,135.89,13.36,136.72,13.31a1.34,1.34,0,0,1,1.22.64,1.32,1.32,0,0,1,0,1.38c-.23.38-23.83,38.53-58.37,52.56a67.87,67.87,0,0,1-24.38,5.24Zm-51-69.34c6.21,9.46,8.52,18.43,10.75,27.14,1.73,6.75,3.37,13.13,6.74,19.34,7.65,14.09,18.67,20.51,34.68,20.19a65.21,65.21,0,0,0,23.42-5c29-11.79,50.21-41.12,55.71-49.33C219.33,234.19,150.19,236.56,102.29,221.2Z"/><path class="cls-2" d="M96.52,242.36c-6.06-11.78-4.7-36.42,11.6-38.7a1.37,1.37,0,0,1,.75,2.55c-8.49,5.27-10.57,15.84-10.71,25.21a53.1,53.1,0,0,0,.88,10.1,1.34,1.34,0,0,1-2.52.84Z"/><path class="cls-5" d="M178.39,284.06a66.72,66.72,0,0,1-23.91,5.14c-19.11.38-29.33-8.85-35.86-20.89a23,23,0,0,1,8.12-7.78,16.53,16.53,0,0,1,9.7-2.27,10.43,10.43,0,0,1,8.15,5.29c6.89-3.52,15.66-1.64,21.79,3.1C172,271,175.76,277.4,178.39,284.06Z"/><path class="cls-2" d="M135,260.84a10.2,10.2,0,0,1,1.12.07,7.75,7.75,0,0,1,6.07,3.84l1.2,2.39,2.38-1.22a14.44,14.44,0,0,1,6.66-1.53,20.65,20.65,0,0,1,12.31,4.36c4.05,3.14,7.38,7.67,10.12,13.82a63,63,0,0,1-20.45,4h-1.08c-14.34,0-24.43-5.76-31.6-18.09a19.68,19.68,0,0,1,6.29-5.6,14.54,14.54,0,0,1,7-2m0-2.65a17.27,17.27,0,0,0-8.28,2.34,23,23,0,0,0-8.12,7.78c6.4,11.8,16.34,20.9,34.73,20.9h1.13a66.72,66.72,0,0,0,23.91-5.14c-2.63-6.66-6.36-13.05-12-17.41a23.3,23.3,0,0,0-13.93-4.92,17.21,17.21,0,0,0-7.86,1.82,10.43,10.43,0,0,0-8.15-5.29,13.63,13.63,0,0,0-1.42-.07Z"/><path class="cls-3" d="M51,77.84h.35A74.49,74.49,0,0,1,52.19,68,83.84,83.84,0,0,0,51,77.84Z"/><path class="cls-2" d="M52.19,68A81.76,81.76,0,0,0,51,77.84h.34A76.22,76.22,0,0,1,52.19,68Z"/><path class="cls-3" d="M52.53,65.74c-.13.74-.23,1.5-.34,2.25.14-.83.29-1.65.46-2.47Z"/><path class="cls-2" d="M52.65,65.52l-.12.22c-.13.74-.23,1.5-.34,2.25.14-.83.29-1.65.46-2.47Z"/></g></g></svg>